<?xml version="1.0" encoding="iso-8859-1"?>
<!-- Generator: Adobe Illustrator 18.0.0, SVG Export Plug-In . SVG Version: 6.00 Build 0)  -->
<!DOCTYPE svg PUBLIC "-//W3C//DTD SVG 1.1//EN" "http://www.w3.org/Graphics/SVG/1.1/DTD/svg11.dtd">
<svg version="1.1" id="Capa_1" xmlns="http://www.w3.org/2000/svg" xmlns:xlink="http://www.w3.org/1999/xlink" x="0px" y="0px"
	 viewBox="0 0 382.002 382.002" style="enable-background:new 0 0 382.002 382.002;" xml:space="preserve">
<g>
	<g>
		<path d="M176.318,161.48c0-4.143-3.357-7.5-7.5-7.5h-15.535c-4.143,0-7.5,3.357-7.5,7.5c0,4.143,3.357,7.5,7.5,7.5h15.535
			C172.961,168.98,176.318,165.623,176.318,161.48z"/>
		<path d="M228.72,153.98h-15.535c-4.143,0-7.5,3.357-7.5,7.5c0,4.143,3.357,7.5,7.5,7.5h15.535c4.143,0,7.5-3.357,7.5-7.5
			C236.22,157.338,232.862,153.98,228.72,153.98z"/>
		<path d="M319.569,311.878V187.814c0-42.457-11.322-88.113-30.286-122.131C265.328,22.713,231.342,0,191.001,0
			c-40.341,0-74.327,22.713-98.282,65.684c-18.964,34.018-30.286,79.674-30.286,122.131v124.063
			c-18.528,16.022-18.097,33.439-17.748,37.246v25.378c0,4.142,3.357,7.5,7.5,7.5h277.633c4.143,0,7.5-3.358,7.5-7.5v-25.378
			C337.666,345.313,338.097,327.899,319.569,311.878z M77.433,187.814c0-40.017,10.612-82.942,28.388-114.826
			C120.567,46.534,147.317,15,191.001,15s70.434,31.534,85.181,57.988c17.775,31.884,28.388,74.81,28.388,114.826v113.95
			c-4.689-2.489-10.034-4.847-16.141-6.997c-50.567-17.806-60.702-26.442-60.248-51.342c0.001-0.046,0.001-0.091,0.001-0.137v-4.83
			c6.987-4.155,13.521-9.453,19.319-15.767c5.381-5.859,9.956-12.377,13.679-19.364c12.054-0.057,28.925-6.498,33.61-30.782
			c2.559-13.26-3.354-21.421-9.739-24.637c-3.974-1.999-8.463-2.374-12.822-1.308c-3.577-38.788-17.547-64.467-41.669-76.782
			c0-0.019,0.003-0.037,0.003-0.056c0-21.234-17.747-38.51-39.56-38.51c-21.815,0-39.562,17.275-39.562,38.51
			c0,0.02,0.003,0.037,0.003,0.057c-24.093,12.3-38.058,37.932-41.656,76.639c-4.171-0.891-8.433-0.46-12.228,1.45
			c-6.386,3.216-12.298,11.377-9.739,24.637c4.606,23.878,20.991,30.501,32.997,30.773c3.724,6.99,8.301,13.512,13.684,19.374
			c5.798,6.314,12.332,11.611,19.319,15.767v4.83c0,0.046,0,0.092,0.001,0.138c0.456,24.899-9.68,33.536-60.248,51.341
			c-6.106,2.15-11.452,4.508-16.141,6.997V187.814z M191.001,234.085c-16.315,0-32.882-7.851-45.452-21.539
			c-15.331-16.694-22.973-39.77-20.965-63.311c0.2-2.353,0.451-4.627,0.727-6.861c5.51-1.021,19.85-4.26,34.412-12.315
			c14.273-7.896,24.785-18.2,31.277-30.479c6.492,12.279,17.004,22.584,31.277,30.479c14.563,8.056,28.902,11.294,34.412,12.315
			c0.276,2.234,0.527,4.509,0.728,6.861c2.008,23.541-5.634,46.617-20.965,63.311C223.883,226.234,207.316,234.085,191.001,234.085z
			 M223.395,276.854c-1.145,12.507-15.232,22.425-32.393,22.425c-17.162,0-31.249-9.918-32.394-22.425
			c6.739-8.168,10.11-18.149,10.216-31.492c7.235,2.433,14.711,3.723,22.177,3.723c7.467,0,14.941-1.29,22.177-3.723
			C213.284,258.704,216.656,268.685,223.395,276.854z M199.024,76.657c29.343,2.397,47.142,18.468,54.791,49.716
			c-6.169-1.562-15.445-4.499-24.638-9.642C211.807,107.014,201.704,93.554,199.024,76.657z M191.001,61.332
			c-8.615,0-16.548,0.917-23.821,2.709c2.677-10.206,12.341-17.787,23.822-17.787c11.481,0,21.144,7.582,23.821,17.788
			C207.55,62.249,199.617,61.332,191.001,61.332z M182.979,76.657c-2.681,16.896-12.783,30.356-30.153,40.074
			c-9.192,5.143-18.469,8.08-24.638,9.642C135.837,95.125,153.636,79.055,182.979,76.657z M268,187.14
			c2.488-7.8,4.023-15.955,4.535-24.273c2.275-1.899,4.503-2.198,5.77-1.56c1.87,0.941,2.56,4.238,1.757,8.398
			C277.97,180.545,272.852,185.225,268,187.14z M113.905,186.839c-4.634-2.085-9.366-6.819-11.356-17.135
			c-0.803-4.159-0.113-7.456,1.757-8.398c1.146-0.578,3.086-0.383,5.135,1.072C109.915,170.759,111.426,178.979,113.905,186.839z
			 M265.14,367.002H115.308v-8.15c0-5.641,17.562-16.017,59.637-16.687c0.986,1.839,8.086,15.165,8.716,16.116
			c0.472,0.852,1.104,1.6,1.855,2.206c1.181,1.031,2.638,1.653,4.668,1.665h0.04h0.002h0.04c2.032-0.012,3.489-0.635,4.67-1.667
			c0.75-0.607,1.38-1.353,1.851-2.2c0.63-0.953,7.73-14.278,8.718-16.12c42.073,0.67,59.637,11.046,59.637,16.687V367.002z
			 M322.317,348.731v18.271H280.14v-8.15c0-19.566-30.26-31.721-78.972-31.721c-4.59,0-6.278,3.123-8.417,7.076
			c-0.724,1.34-1.604,2.994-2.527,4.738c-0.926-1.746-1.807-3.402-2.531-4.742c-2.137-3.951-3.824-7.072-8.414-7.072
			c-48.711,0-78.971,12.154-78.971,31.721v8.15H59.685v-18.271c0-0.434-1.723-25.522,38.871-39.815
			c20.345-7.163,36.124-13.449,47.541-21.069c6.397,15.357,24.101,26.433,44.905,26.433c20.805,0,38.51-11.074,44.907-26.432
			c11.417,7.619,27.194,13.905,47.537,21.068C324.042,323.209,322.317,348.298,322.317,348.731z"/>
		<path d="M205.248,190.292c-4.143,0-7.5,3.357-7.5,7.5c0,1.23-2.562,3.49-6.746,3.49c-4.186,0-6.747-2.26-6.747-3.49
			c0-4.143-3.357-7.5-7.5-7.5c-4.143,0-7.5,3.357-7.5,7.5c0,10.195,9.756,18.49,21.747,18.49c11.991,0,21.746-8.295,21.746-18.49
			C212.748,193.649,209.391,190.292,205.248,190.292z"/>
	</g>
</g>
<g>
</g>
<g>
</g>
<g>
</g>
<g>
</g>
<g>
</g>
<g>
</g>
<g>
</g>
<g>
</g>
<g>
</g>
<g>
</g>
<g>
</g>
<g>
</g>
<g>
</g>
<g>
</g>
<g>
</g>
</svg>
